{"title":"Lucky Jim (1957) WEBRip x264-pong","uid":15068447,"size":701609706,"categoryP":"video","categoryS":"movies","magnet":"?xt=urn:btih:52f90ac21b177beb8493a34b67569dce199c3d7a&amp;dn=Lucky+Jim+%281957%29+WEBRip+x264-pong&amp;tr=udp%3A%2F%2Ftracker.leechers-paradise.org%3A6969&amp;tr=udp%3A%2F%2Fzer0day.ch%3A1337&amp;tr=udp%3A%2F%2Fopen.demonii.com%3A1337&amp;tr=udp%3A%2F%2Ftracker.coppersurfer.tk%3A6969&amp;tr=udp%3A%2F%2Fexodus.desync.com%3A6969","seeders":0,"leechers":1,"uploader":"Pongydog","files":1,"time":1466795167,"description":"http://www.imdb.com/title/tt0050660\r\n\r\n\r\n\r\nJim Dixon feels anything but lucky. At the university he has to do the bidding of absent-minded and boring Professor Welch to have any hope of keeping his job. Worse, he has managed to get ... See full summary » \r\n\r\nDirector: John Boulting  \r\n\r\nWriters: Kingsley Amis (novel),  Patrick Campbell (screenplay)  | 1 more credit » \r\n\r\nStars: John Welsh,  Ronald Cardew,  Hugh Griffith  | \r\n\r\nGeneral\r\nComplete name                            : C:Usersuser1VideosLucky Jim (1957) WEBRip x264-pong.mp4\r\nFormat                                   : MPEG-4\r\nFormat profile                           : Base Media\r\nCodec ID                                 : isom (isom/iso2/avc1/mp41)\r\nFile size                                : 669 MiB\r\nDuration                                 : 1h 31mn\r\nOverall bit rate                         : 1 021 Kbps\r\nEncoded date                             : UTC 2016-06-24 02:35:34\r\nTagged date                              : UTC 2016-06-24 02:35:34\r\nWriting application                      : Lavf57.36.100\r\n\r\nVideo\r\nID                                       : 1\r\nFormat                                   : AVC\r\nFormat/Info                              : Advanced Video Codec\r\nFormat profile                           :   \r\nFormat settings, CABAC                   : Yes\r\nFormat settings, ReFrames                : 5 frames\r\nCodec ID                                 : avc1\r\nCodec ID/Info                            : Advanced Video Coding\r\nDuration                                 : 1h 31mn\r\nBit rate                                 : 900 Kbps\r\nWidth                                    : 832 pixels\r\nHeight                                   : 500 pixels\r\nDisplay aspect ratio                     : 5:3\r\nFrame rate mode                          : Constant\r\nFrame rate                               : 25.000 fps\r\nColor space                              : YUV\r\nChroma subsampling                       : 4:2:0\r\nBit depth                                : 8 bits\r\nScan type                                : Progressive\r\nBits/(Pixel*Frame)                       : 0.087\r\nStream size                              : 592 MiB (89%)\r\nWriting library                          : x264 core 148 r2643\r\nEncoding settings                        : cabac=1 / ref=5 / deblock=1:0:0 / analyse=0x1:0x131 / me=umh / subme=8 / psy=1 / psy_rd=1.00:0.00 / mixed_ref=0 / me_range=16 / chroma_me=1 / trellis=1 / 8x8dct=0 / cqm=0 / deadzone=21,11 / fast_pskip=1 / chroma_qp_offset=-2 / threads=3 / lookahead_threads=1 / sliced_threads=0 / nr=0 / decimate=1 / interlaced=0 / bluray_compat=0 / constrained_intra=0 / bframes=3 / b_pyramid=0 / b_adapt=2 / b_bias=0 / direct=3 / weightb=1 / open_gop=0 / weightp=2 / keyint=250 / keyint_min=25 / scenecut=40 / intra_refresh=0 / rc_lookahead=50 / rc=abr / mbtree=1 / bitrate=900 / ratetol=1.0 / qcomp=0.60 / qpmin=10 / qpmax=69 / qpstep=4 / vbv_maxrate=2400 / vbv_bufsize=24000 / nal_hrd=none / filler=0 / ip_ratio=1.40 / aq=3:1.00\r\nEncoded date                             : UTC 2016-06-24 02:35:34\r\nTagged date                              : UTC 2016-06-24 02:35:34\r\n\r\nAudio\r\nID                                       : 2\r\nFormat                                   : AAC\r\nFormat/Info                              : Advanced Audio Codec\r\nFormat profile                           : LC\r\nCodec ID                                 : 40\r\nDuration                                 : 1h 31mn\r\nBit rate mode                            : Constant\r\nBit rate                                 : 112 Kbps\r\nChannel(s)                               : 2 channels\r\nChannel positions                        : Front: L R\r\nSampling rate                            : 48.0 KHz\r\nFrame rate                               : 46.875 fps (1024 spf)\r\nCompression mode                         : Lossy\r\nStream size                              : 73.3 MiB (11%)\r\nDefault                                  : Yes\r\nAlternate group                          : 1\r\nEncoded date                             : UTC 2016-06-24 02:35:34\r\nTagged date                              : UTC 2016-06-24 02:35:34","torrent":{"xt":"urn:btih:52f90ac21b177beb8493a34b67569dce199c3d7a","amp;dn":"Lucky+Jim+%281957%29+WEBRip+x264-pong","amp;tr":["udp%3A%2F%2Ftracker.leechers-paradise.org%3A6969","udp%3A%2F%2Fzer0day.ch%3A1337","udp%3A%2F%2Fopen.demonii.com%3A1337","udp%3A%2F%2Ftracker.coppersurfer.tk%3A6969","udp%3A%2F%2Fexodus.desync.com%3A6969"],"infoHash":"52f90ac21b177beb8493a34b67569dce199c3d7a","infoHashBuffer":{"type":"Buffer","data":[82,249,10,194,27,23,123,235,132,147,163,75,103,86,157,206,25,156,61,122]},"announce":[],"urlList":[]}}